<?xml version="1.0" encoding="UTF-8"?>
<svg id="Layer_1" data-name="Layer 1" xmlns="http://www.w3.org/2000/svg" viewBox="0 0 1920 1080">
  <defs>
    <style>
      .cls-1 {
        fill: none;
        stroke: #171717;
        stroke-miterlimit: 10;
        stroke-width: 14px;
      }

      .cls-2 {
        fill: #e4e4e4;
      }

      .cls-2, .cls-3 {
        stroke-width: 0px;
      }

      .cls-3 {
        fill: #010101;
      }
    </style>
  </defs>
  <path class="cls-1" d="M441.69,172.01c152.15,74.22,239.33,74.22,380.19-2.17,4.26-2.31,8.94-1.04,12.73.19,18.34,5.99,62.97,93.43,56.13,103.54-113.85,168.45-152.54,306.65-152.54,306.65-79.66,46.98-194.61,53.58-212.7-25.63-20.29-88.86-27.41-112.58-137.39-269.89-10.77-15.41,18.39-103.91,41.24-112.07,5.51-1.97,10.69-1.44,12.35-.63Z"/>
  <path class="cls-3" d="M1128.98,439.16h-10.58c-6.6,0-12,5.4-12,12v9.71l-106.48,69.93v-25.46h-25.54v-5.85h-51.08v-54.64c0-6.6-5.4-12-12-12H380.51c-6.6,0-12,5.4-12,12v38.5h-15.88v16.14h-50.99v29.78h-15.89c-6.6,0-12,5.4-12,12v3.46c0,6.6,5.4,12,12,12h15.89v132.47h50.99v17.75h15.88v26.11c0,6.6,5.4,12,12,12h76.86v45.44h-63.45c-6.6,0-12,5.4-12,12v8.25c0,6.6,5.4,12,12,12h484.39c6.6,0,12-5.4,12-12v-8.25c0-6.6-5.4-12-12-12h-64.48v-45.44h97.49c6.6,0,12-5.4,12-12v-54.64h51.08v-15.66h25.54v-17.48l106.48,65.56v6.09c0,6.6,5.4,12,12,12h10.58c6.6,0,12-5.4,12-12v-265.78c0-6.6-5.4-12-12-12Z"/>
  <rect class="cls-2" x="403.61" y="469.22" width="486.7" height="237.73" rx="12" ry="12"/>
  <circle class="cls-2" cx="508.3" cy="764.85" r="20.89"/>
  <circle class="cls-2" cx="571.95" cy="764.85" r="20.89"/>
  <circle class="cls-2" cx="635.59" cy="764.85" r="20.89"/>
  <circle class="cls-2" cx="699.24" cy="764.85" r="20.89"/>
  <circle class="cls-2" cx="762.88" cy="764.85" r="20.89"/>
</svg>