<?xml version="1.0" encoding="UTF-8"?>
<svg id="Layer_2" data-name="Layer 2" xmlns="http://www.w3.org/2000/svg" viewBox="0 0 316.97 322.42">
  <defs>
    <style>
      .cls-1 {
        fill: #171717;
      }

      .cls-1, .cls-2, .cls-3, .cls-4 {
        stroke-width: 0px;
      }

      .cls-5 {
        stroke: #424242;
        stroke-width: 10px;
      }

      .cls-5, .cls-6, .cls-7 {
        fill: none;
        stroke-miterlimit: 10;
      }

      .cls-2 {
        fill: #efebe1;
      }

      .cls-6 {
        stroke: #6f7072;
        stroke-width: 20px;
      }

      .cls-3 {
        fill: #7e7f7f;
      }

      .cls-4 {
        fill: #ed7423;
      }

      .cls-7 {
        stroke: #925c28;
        stroke-width: 5px;
      }
    </style>
  </defs>
  <g id="Layer_1-2" data-name="Layer 1">
    <path class="cls-1" d="M68.5,147.47c7.2-50.68,53.38-85.82,103.14-78.48,49.76,7.33,84.27,54.36,77.07,105.03-7.2,50.68-53.38,85.82-103.14,78.48-49.76-7.33-84.27-54.36-77.07-105.03Z"/>
    <ellipse class="cls-2" cx="158.22" cy="160.68" rx="75.61" ry="77"/>
    <path class="cls-4" d="M267.42,85.16C226.43,23.96,144.48,8.19,84.39,49.93,24.29,91.67,8.8,175.12,49.79,236.32c40.99,61.2,122.94,76.97,183.03,35.23,60.1-41.74,75.59-125.19,34.6-186.39ZM167.73,78.89c9.72-20.38,28.44-31.53,41.82-24.92,13.37,6.62,16.33,28.5,6.61,48.88-9.72,20.38-28.44,31.53-41.82,24.92s-16.33-28.5-6.61-48.88ZM170.7,178.81c-9.8,6.8-23.15,4.23-29.83-5.74-6.68-9.98-4.16-23.58,5.64-30.38,9.8-6.8,23.15-4.23,29.83,5.74,6.68,9.98,4.16,23.58-5.64,30.38ZM93.19,62.49c12.31-8.5,32.4-.18,44.89,18.57,12.48,18.75,12.63,40.84.32,49.34-12.31,8.5-32.4.18-44.89-18.57-12.48-18.75-12.63-40.84-.32-49.34ZM84.49,193.76c-22.19,1.66-41.05-9.24-42.14-24.34-1.09-15.1,16.02-28.68,38.21-30.34,22.19-1.66,41.05,9.24,42.14,24.34,1.09,15.1-16.02,28.68-38.21,30.34ZM149.7,242.62c-9.67,20.4-28.36,31.61-41.75,25.03-13.39-6.58-16.41-28.45-6.74-48.86,9.67-20.4,28.36-31.61,41.75-25.03,13.39,6.58,16.41,28.45,6.74,48.86ZM224.29,258.81c-12.28,8.53-32.4.27-44.94-18.44-12.54-18.72-12.74-40.8-.46-49.33,12.28-8.53,32.4-.27,44.94,18.44,12.54,18.72,12.74,40.8.46,49.33ZM236.59,182.63c-22.19,1.59-41.03-9.36-42.07-24.46-1.05-15.1,16.1-28.64,38.29-30.23,22.19-1.59,41.03,9.36,42.07,24.46,1.05,15.1-16.1,28.64-38.29,30.23Z"/>
    <ellipse class="cls-7" cx="158.58" cy="160.69" rx="19.44" ry="19.8"/>
    <ellipse class="cls-3" cx="158.57" cy="160.74" rx="17.61" ry="17.94"/>
    <path class="cls-5" d="M134.62,297.77c-74.23-13.37-123.75-85.48-110.63-161.07C37.13,61.11,107.94,10.68,182.16,24.05c74.23,13.37,123.75,85.48,110.63,161.07-13.13,75.59-83.94,126.03-158.17,112.66Z"/>
    <path class="cls-6" d="M196,14.94c79.32,21.1,126.83,103.69,106.12,184.47s-101.82,129.16-181.14,108.06C41.65,286.38-5.86,203.79,14.85,123.01,35.57,42.23,116.67-6.16,196,14.94Z"/>
  </g>
</svg>